<svg width="48" height="48" viewBox="0 0 48 48" fill="none" xmlns="http://www.w3.org/2000/svg">
<path d="M40 0C44.4183 0 48 3.58172 48 8V40C48 44.4183 44.4183 48 40 48H8C3.58172 48 0 44.4183 0 40V8C5.15405e-07 3.58172 3.58172 0 8 0H40Z" fill="#FACC15"/>
<path d="M40 0C44.4183 0 48 3.58172 48 8V40C48 44.4183 44.4183 48 40 48H8C3.58172 48 0 44.4183 0 40V8C5.15405e-07 3.58172 3.58172 0 8 0H40Z" stroke="#E5E7EB"/>
<path d="M34 38H14V10H34V38Z" stroke="#E5E7EB"/>
<path d="M34 33.5H14V13.5H34V33.5Z" stroke="#E5E7EB"/>
<path d="M15.25 14.75C15.9414 14.75 16.5 15.3086 16.5 16V29.125C16.5 29.4688 16.7812 29.75 17.125 29.75H32.75C33.4414 29.75 34 30.3086 34 31C34 31.6914 33.4414 32.25 32.75 32.25H17.125C15.3984 32.25 14 30.8516 14 29.125V16C14 15.3086 14.5586 14.75 15.25 14.75ZM19 18.5C19 17.8086 19.5586 17.25 20.25 17.25H27.75C28.4414 17.25 29 17.8086 29 18.5C29 19.1914 28.4414 19.75 27.75 19.75H20.25C19.5586 19.75 19 19.1914 19 18.5ZM20.25 21H25.25C25.9414 21 26.5 21.5586 26.5 22.25C26.5 22.9414 25.9414 23.5 25.25 23.5H20.25C19.5586 23.5 19 22.9414 19 22.25C19 21.5586 19.5586 21 20.25 21ZM20.25 24.75H30.25C30.9414 24.75 31.5 25.3086 31.5 26C31.5 26.6914 30.9414 27.25 30.25 27.25H20.25C19.5586 27.25 19 26.6914 19 26C19 25.3086 19.5586 24.75 20.25 24.75Z" fill="#111827"/>
</svg>
