<svg width="64" height="64" viewBox="0 0 64 64" fill="none" xmlns="http://www.w3.org/2000/svg">
<path d="M32 0C49.6731 0 64 14.3269 64 32C64 49.6731 49.6731 64 32 64C14.3269 64 0 49.6731 0 32C0 14.3269 14.3269 0 32 0Z" fill="#FEE2E2"/>
<path d="M32 0C49.6731 0 64 14.3269 64 32C64 49.6731 49.6731 64 32 64C14.3269 64 0 49.6731 0 32C0 14.3269 14.3269 0 32 0Z" stroke="#E5E7EB"/>
<path d="M39.5 48H24.5V16H39.5V48Z" stroke="#E5E7EB"/>
<g clip-path="url(#clip0_16_1957)">
<path d="M32.0001 19C32.8298 19 33.5001 19.6703 33.5001 20.5V22.1734C33.5751 22.1828 33.6454 22.1922 33.7204 22.2063C33.7391 22.2109 33.7532 22.2109 33.7719 22.2156L36.0219 22.6281C36.8376 22.7781 37.3766 23.5609 37.2266 24.3719C37.0766 25.1828 36.2938 25.7266 35.4829 25.5766L33.2563 25.1688C31.7891 24.9531 30.4954 25.0984 29.586 25.4594C28.6766 25.8203 28.311 26.3172 28.2266 26.7766C28.1329 27.2781 28.2032 27.5594 28.2829 27.7328C28.3673 27.9156 28.5407 28.1219 28.8829 28.3516C29.6469 28.8531 30.8188 29.1813 32.3376 29.5844L32.4735 29.6219C33.8141 29.9781 35.4548 30.4094 36.6735 31.2062C37.3391 31.6422 37.9673 32.2328 38.3563 33.0578C38.7548 33.8969 38.8391 34.8344 38.6563 35.8328C38.3329 37.6141 37.1048 38.8047 35.5813 39.4281C34.9391 39.6906 34.2407 39.8594 33.5001 39.9437V41.5C33.5001 42.3297 32.8298 43 32.0001 43C31.1704 43 30.5001 42.3297 30.5001 41.5V39.8641C30.4813 39.8594 30.4579 39.8594 30.4391 39.8547H30.4298C29.286 39.6766 27.4063 39.1844 26.1407 38.6219C25.386 38.2844 25.0438 37.3984 25.3813 36.6437C25.7188 35.8891 26.6048 35.5469 27.3594 35.8844C28.3391 36.3203 29.9516 36.7516 30.8844 36.8969C32.3798 37.1172 33.6126 36.9906 34.4469 36.6484C35.2391 36.325 35.6001 35.8563 35.7032 35.2938C35.7923 34.7969 35.7219 34.5109 35.6423 34.3375C35.5532 34.15 35.3798 33.9437 35.0329 33.7141C34.2641 33.2125 33.0876 32.8844 31.5641 32.4813L31.4329 32.4484C30.0969 32.0922 28.4563 31.6562 27.2376 30.8594C26.5719 30.4234 25.9485 29.8281 25.5594 29.0031C25.1657 28.1641 25.086 27.2266 25.2735 26.2281C25.611 24.4375 26.9516 23.275 28.4751 22.6703C29.0985 22.4219 29.7829 22.2531 30.5001 22.1547V20.5C30.5001 19.6703 31.1704 19 32.0001 19Z" fill="#DC2626"/>
</g>
<defs>
<clipPath id="clip0_16_1957">
<path d="M24.5 19H39.5V43H24.5V19Z" fill="white"/>
</clipPath>
</defs>
</svg>
