<svg width="64" height="64" viewBox="0 0 64 64" fill="none" xmlns="http://www.w3.org/2000/svg">
<path d="M32 0C49.6731 0 64 14.3269 64 32C64 49.6731 49.6731 64 32 64C14.3269 64 0 49.6731 0 32C0 14.3269 14.3269 0 32 0Z" fill="#FEE2E2"/>
<path d="M32 0C49.6731 0 64 14.3269 64 32C64 49.6731 49.6731 64 32 64C14.3269 64 0 49.6731 0 32C0 14.3269 14.3269 0 32 0Z" stroke="#E5E7EB"/>
<path d="M44 48H20V16H44V48Z" stroke="#E5E7EB"/>
<g clip-path="url(#clip0_16_2168)">
<path d="M32 19C35.1826 19 38.2348 20.2643 40.4853 22.5147C42.7357 24.7652 44 27.8174 44 31C44 34.1826 42.7357 37.2348 40.4853 39.4853C38.2348 41.7357 35.1826 43 32 43C28.8174 43 25.7652 41.7357 23.5147 39.4853C21.2643 37.2348 20 34.1826 20 31C20 27.8174 21.2643 24.7652 23.5147 22.5147C25.7652 20.2643 28.8174 19 32 19ZM30.875 24.625V31C30.875 31.375 31.0625 31.7266 31.3766 31.9375L35.8766 34.9375C36.3922 35.2844 37.0906 35.1437 37.4375 34.6234C37.7844 34.1031 37.6437 33.4094 37.1234 33.0625L33.125 30.4V24.625C33.125 24.0016 32.6234 23.5 32 23.5C31.3766 23.5 30.875 24.0016 30.875 24.625Z" fill="#DC2626"/>
</g>
<defs>
<clipPath id="clip0_16_2168">
<path d="M20 19H44V43H20V19Z" fill="white"/>
</clipPath>
</defs>
</svg>
