<svg width="64" height="64" viewBox="0 0 64 64" fill="none" xmlns="http://www.w3.org/2000/svg">
<path d="M32 0C49.6731 0 64 14.3269 64 32C64 49.6731 49.6731 64 32 64C14.3269 64 0 49.6731 0 32C0 14.3269 14.3269 0 32 0Z" fill="#FEE2E2"/>
<path d="M32 0C49.6731 0 64 14.3269 64 32C64 49.6731 49.6731 64 32 64C14.3269 64 0 49.6731 0 32C0 14.3269 14.3269 0 32 0Z" stroke="#E5E7EB"/>
<path d="M47 48H17V16H47V48Z" stroke="#E5E7EB"/>
<g clip-path="url(#clip0_16_1178)">
<path d="M18.819 19.2393C18.3315 18.855 17.6237 18.944 17.2393 19.4315C16.855 19.919 16.944 20.6268 17.4315 21.0112L45.1815 42.7612C45.669 43.1456 46.3768 43.0565 46.7612 42.569C47.1456 42.0815 47.0565 41.3737 46.569 40.9893L41.6378 37.1268C43.494 35.2237 44.7503 33.0909 45.3831 31.5768C45.5378 31.2065 45.5378 30.794 45.3831 30.4237C44.6846 28.7503 43.2175 26.3128 41.0237 24.2784C38.8206 22.2253 35.7878 20.5003 32.0003 20.5003C28.8034 20.5003 26.1409 21.7331 24.0643 23.3503L18.819 19.2393ZM27.4581 26.0081C28.6534 24.9159 30.2518 24.2503 32.0003 24.2503C35.7268 24.2503 38.7503 27.2737 38.7503 31.0003C38.7503 32.1675 38.455 33.2643 37.9346 34.2206L36.1253 32.805C36.519 31.9003 36.6221 30.8643 36.3503 29.8378C35.83 27.8925 34.1096 26.5846 32.1971 26.505C31.9253 26.4956 31.7659 26.7909 31.8503 27.0534C31.9487 27.3534 32.005 27.6721 32.005 28.005C32.005 28.4831 31.8925 28.9331 31.6956 29.3315L27.4628 26.0128L27.4581 26.0081ZM34.4846 37.2768C33.7159 37.5815 32.8768 37.7503 32.0003 37.7503C28.2737 37.7503 25.2503 34.7268 25.2503 31.0003C25.2503 30.6768 25.2737 30.3628 25.3159 30.0534L20.8956 26.5706C19.8268 27.9628 19.0628 29.3503 18.6175 30.4237C18.4628 30.794 18.4628 31.2065 18.6175 31.5768C19.3159 33.2503 20.7831 35.6878 22.9768 37.7221C25.18 39.7753 28.2128 41.5003 32.0003 41.5003C34.2409 41.5003 36.2143 40.8956 37.9159 39.9768L34.4846 37.2768Z" fill="#DC2626"/>
</g>
<defs>
<clipPath id="clip0_16_1178">
<path d="M17 19H47V43H17V19Z" fill="white"/>
</clipPath>
</defs>
</svg>
