<svg width="48" height="48" viewBox="0 0 48 48" fill="none" xmlns="http://www.w3.org/2000/svg">
<path d="M40 0C44.4183 5.15405e-07 48 3.58172 48 8V40C48 44.4183 44.4183 48 40 48H8C3.58172 48 1.28855e-07 44.4183 0 40V8C5.15422e-07 3.58172 3.58172 1.28851e-07 8 0H40Z" fill="#FACC15"/>
<path d="M40 0C44.4183 5.15405e-07 48 3.58172 48 8V40C48 44.4183 44.4183 48 40 48H8C3.58172 48 1.28855e-07 44.4183 0 40V8C5.15422e-07 3.58172 3.58172 1.28851e-07 8 0H40Z" stroke="#E5E7EB"/>
<path d="M31.5 38H16.5V10H31.5V38Z" stroke="#E5E7EB"/>
<g clip-path="url(#clip0_16_1224)">
<path d="M24 13.5C21.9297 13.5 20.25 15.1797 20.25 17.25V23.5C20.25 25.5703 21.9297 27.25 24 27.25C26.0703 27.25 27.75 25.5703 27.75 23.5V17.25C27.75 15.1797 26.0703 13.5 24 13.5ZM19 21.9375C19 21.418 18.582 21 18.0625 21C17.543 21 17.125 21.418 17.125 21.9375V23.5C17.125 26.9805 19.7109 29.8555 23.0625 30.3125V31.625H21.1875C20.668 31.625 20.25 32.043 20.25 32.5625C20.25 33.082 20.668 33.5 21.1875 33.5H24H26.8125C27.332 33.5 27.75 33.082 27.75 32.5625C27.75 32.043 27.332 31.625 26.8125 31.625H24.9375V30.3125C28.2891 29.8555 30.875 26.9805 30.875 23.5V21.9375C30.875 21.418 30.457 21 29.9375 21C29.418 21 29 21.418 29 21.9375V23.5C29 26.2617 26.7617 28.5 24 28.5C21.2383 28.5 19 26.2617 19 23.5V21.9375Z" fill="#111827"/>
</g>
<defs>
<clipPath id="clip0_16_1224">
<path d="M16.5 13.5H31.5V33.5H16.5V13.5Z" fill="white"/>
</clipPath>
</defs>
</svg>
