<svg width="64" height="64" viewBox="0 0 64 64" fill="none" xmlns="http://www.w3.org/2000/svg">
<path d="M32 0C49.6731 0 64 14.3269 64 32C64 49.6731 49.6731 64 32 64C14.3269 64 0 49.6731 0 32C0 14.3269 14.3269 0 32 0Z" fill="#FEE2E2"/>
<path d="M32 0C49.6731 0 64 14.3269 64 32C64 49.6731 49.6731 64 32 64C14.3269 64 0 49.6731 0 32C0 14.3269 14.3269 0 32 0Z" stroke="#E5E7EB"/>
<path d="M45.5 48H18.5V16H45.5V48Z" stroke="#E5E7EB"/>
<path d="M45.5 43H18.5V19H45.5V43Z" stroke="#E5E7EB"/>
<path d="M36.5 22C36.5 21.1703 37.1703 20.5 38 20.5H44C44.8297 20.5 45.5 21.1703 45.5 22C45.5 22.8297 44.8297 23.5 44 23.5H39.5V28C39.5 28.8297 38.8297 29.5 38 29.5H33.5V34C33.5 34.8297 32.8297 35.5 32 35.5H27.5V40C27.5 40.8297 26.8297 41.5 26 41.5H20C19.1703 41.5 18.5 40.8297 18.5 40C18.5 39.1703 19.1703 38.5 20 38.5H24.5V34C24.5 33.1703 25.1703 32.5 26 32.5H30.5V28C30.5 27.1703 31.1703 26.5 32 26.5H36.5V22Z" fill="#DC2626"/>
</svg>
