<svg width="49" height="48" viewBox="0 0 49 48" fill="none" xmlns="http://www.w3.org/2000/svg">
<path d="M40.5 0C44.9183 2.57703e-07 48.5 3.58172 48.5 8V40C48.5 44.4183 44.9183 48 40.5 48H8C3.58172 48 1.28855e-07 44.4183 0 40V8C5.15422e-07 3.58172 3.58172 0 8 0H40.5Z" fill="#FACC15"/>
<path d="M40.5 0C44.9183 2.57703e-07 48.5 3.58172 48.5 8V40C48.5 44.4183 44.9183 48 40.5 48H8C3.58172 48 1.28855e-07 44.4183 0 40V8C5.15422e-07 3.58172 3.58172 0 8 0H40.5Z" stroke="#E5E7EB"/>
<path d="M35.5 38H13V10H35.5V38Z" stroke="#E5E7EB"/>
<g clip-path="url(#clip0_16_1212)">
<path d="M25.5 14.7501C25.5 14.3634 25.3242 14.0001 25.0195 13.7658C24.7148 13.5314 24.3203 13.4455 23.9453 13.5392L16.918 15.297C16.0859 15.5041 15.5 16.2541 15.5 17.1134V31.0001H14.25C13.5586 31.0001 13 31.5587 13 32.2501C13 32.9416 13.5586 33.5001 14.25 33.5001H16.75H24.25H25.5V32.2501V14.7501ZM23 23.5002C23 24.1916 22.582 24.7501 22.0625 24.7501C21.543 24.7501 21.125 24.1916 21.125 23.5002C21.125 22.8087 21.543 22.2502 22.0625 22.2502C22.582 22.2502 23 22.8087 23 23.5002ZM26.75 18.5002H30.5V32.2501C30.5 32.9416 31.0586 33.5001 31.75 33.5001H34.25C34.9414 33.5001 35.5 32.9416 35.5 32.2501C35.5 31.5587 34.9414 31.0001 34.25 31.0001H33V18.5002C33 17.1212 31.8789 16.0001 30.5 16.0001H26.75V18.5002Z" fill="#111827"/>
</g>
<defs>
<clipPath id="clip0_16_1212">
<path d="M13 13.5H35.5V33.5H13V13.5Z" fill="white"/>
</clipPath>
</defs>
</svg>
