<svg width="18" height="24" viewBox="0 0 18 24" fill="none" xmlns="http://www.w3.org/2000/svg">
<path d="M18 24H0V0H18V24Z" stroke="#E5E7EB"/>
<g clip-path="url(#clip0_16_1295)">
<path d="M9.90254 4.5625C9.73692 4.21875 9.38692 4 9.00255 4C8.61817 4 8.27129 4.21875 8.10254 4.5625L6.09317 8.69688L1.60567 9.35938C1.23067 9.41562 0.91817 9.67812 0.802545 10.0375C0.68692 10.3969 0.78067 10.7937 1.04942 11.0594L4.30567 14.2812L3.53692 18.8344C3.47442 19.2094 3.63067 19.5906 3.94005 19.8125C4.24942 20.0344 4.65879 20.0625 4.99629 19.8844L9.00567 17.7437L13.015 19.8844C13.3525 20.0625 13.7619 20.0375 14.0713 19.8125C14.3807 19.5875 14.5369 19.2094 14.4744 18.8344L13.7025 14.2812L16.9588 11.0594C17.2275 10.7937 17.3244 10.3969 17.2057 10.0375C17.0869 9.67812 16.7775 9.41562 16.4025 9.35938L11.9119 8.69688L9.90254 4.5625Z" fill="#111827"/>
</g>
<defs>
<clipPath id="clip0_16_1295">
<path d="M0 4H18V20H0V4Z" fill="white"/>
</clipPath>
</defs>
</svg>
