<svg width="48" height="48" viewBox="0 0 48 48" fill="none" xmlns="http://www.w3.org/2000/svg">
<path d="M40 0C44.4183 0 48 3.58172 48 8V40C48 44.4183 44.4183 48 40 48H8C3.58172 48 0 44.4183 0 40V8C5.15405e-07 3.58172 3.58172 0 8 0H40Z" fill="#FACC15"/>
<path d="M40 0C44.4183 0 48 3.58172 48 8V40C48 44.4183 44.4183 48 40 48H8C3.58172 48 0 44.4183 0 40V8C5.15405e-07 3.58172 3.58172 0 8 0H40Z" stroke="#E5E7EB"/>
<path d="M31.5 38H16.5V10H31.5V38Z" stroke="#E5E7EB"/>
<g clip-path="url(#clip0_16_2235)">
<path d="M20.25 13.5C19.5586 13.5 19 14.0586 19 14.75V18.5H21.5V14.75C21.5 14.0586 20.9414 13.5 20.25 13.5ZM27.75 13.5C27.0586 13.5 26.5 14.0586 26.5 14.75V18.5H29V14.75C29 14.0586 28.4414 13.5 27.75 13.5ZM17.75 19.75C17.0586 19.75 16.5 20.3086 16.5 21C16.5 21.6914 17.0586 22.25 17.75 22.25V23.5C17.75 26.5234 19.8984 29.0469 22.75 29.625V32.25C22.75 32.9414 23.3086 33.5 24 33.5C24.6914 33.5 25.25 32.9414 25.25 32.25V29.625C28.1016 29.0469 30.25 26.5234 30.25 23.5V22.25C30.9414 22.25 31.5 21.6914 31.5 21C31.5 20.3086 30.9414 19.75 30.25 19.75H17.75Z" fill="#111827"/>
</g>
<defs>
<clipPath id="clip0_16_2235">
<path d="M16.5 13.5H31.5V33.5H16.5V13.5Z" fill="white"/>
</clipPath>
</defs>
</svg>
