<svg width="48" height="48" viewBox="0 0 48 48" fill="none" xmlns="http://www.w3.org/2000/svg">
<path d="M40 0C44.4183 0 48 3.58172 48 8V40C48 44.4183 44.4183 48 40 48H8C3.58172 48 0 44.4183 0 40V8C5.15405e-07 3.58172 3.58172 0 8 0H40Z" fill="#FACC15"/>
<path d="M40 0C44.4183 0 48 3.58172 48 8V40C48 44.4183 44.4183 48 40 48H8C3.58172 48 0 44.4183 0 40V8C5.15405e-07 3.58172 3.58172 0 8 0H40Z" stroke="#E5E7EB"/>
<path d="M31.5 38H16.5V10H31.5V38Z" stroke="#E5E7EB"/>
<g clip-path="url(#clip0_16_2214)">
<path d="M19.3516 15.0237C18.7734 14.6683 18.0469 14.6565 17.457 14.9886C16.8672 15.3206 16.5 15.9456 16.5 16.6253V30.3753C16.5 31.055 16.8672 31.68 17.457 32.012C18.0469 32.344 18.7734 32.3284 19.3516 31.9769L30.6016 25.1019C31.1602 24.762 31.5 24.1565 31.5 23.5003C31.5 22.844 31.1602 22.2425 30.6016 21.8987L19.3516 15.0237Z" fill="#111827"/>
</g>
<defs>
<clipPath id="clip0_16_2214">
<path d="M16.5 13.5H31.5V33.5H16.5V13.5Z" fill="white"/>
</clipPath>
</defs>
</svg>
